<?xml version="1.0" standalone="no"?>
<!DOCTYPE svg PUBLIC "-//W3C//DTD SVG 20010904//EN"
 "http://www.w3.org/TR/2001/REC-SVG-20010904/DTD/svg10.dtd">
<svg version="1.0" xmlns="http://www.w3.org/2000/svg"
 width="512.000000pt" height="512.000000pt" viewBox="0 0 512.000000 512.000000"
 preserveAspectRatio="xMidYMid meet">
<metadata>
Created by potrace 1.14, written by Peter Selinger 2001-2017
</metadata>
<g transform="translate(0.000000,512.000000) scale(0.100000,-0.100000)"
fill="#000000" stroke="none">
<path d="M2378 4785 c-2 -2 -32 -6 -68 -10 -36 -4 -72 -8 -80 -10 -8 -1 -35
-6 -60 -10 -25 -3 -103 -22 -175 -40 -702 -182 -1280 -701 -1538 -1380 -39
-105 -90 -277 -103 -355 -36 -206 -38 -230 -39 -435 0 -209 6 -278 36 -435
103 -531 386 -998 809 -1337 292 -234 632 -388 1008 -458 116 -21 215 -29 377
-29 232 -1 297 5 500 47 485 101 961 394 1270 782 22 28 43 52 46 55 14 13
101 144 152 231 157 267 257 568 294 887 15 128 8 483 -11 577 -2 11 -7 40
-11 65 -4 25 -14 72 -22 105 -8 33 -17 70 -19 83 -20 105 -148 412 -230 552
-231 393 -610 738 -1000 911 -38 16 -78 34 -89 39 -53 24 -171 64 -272 91
-100 27 -139 35 -258 54 -16 3 -46 8 -65 11 -37 6 -446 14 -452 9z"/>
</g>
</svg>
